<?xml version="1.0" standalone="no"?>
<!DOCTYPE svg PUBLIC "-//W3C//DTD SVG 20010904//EN"
 "http://www.w3.org/TR/2001/REC-SVG-20010904/DTD/svg10.dtd">
<svg version="1.0" xmlns="http://www.w3.org/2000/svg"
 width="500.000000pt" height="500.000000pt" viewBox="0 0 500.000000 500.000000"
 preserveAspectRatio="xMidYMid meet">

<g transform="translate(0.000000,500.000000) scale(0.100000,-0.100000)"
fill="#FFFFFF" stroke="none">
<path d="M3283 3926 c-35 -16 -59 -47 -73 -95 -11 -39 -3 -62 19 -60 9 1 44 1
79 0 l62 -1 0 -45 0 -45 -85 0 -85 0 0 31 c0 29 -5 33 -102 79 -115 54 -322
113 -463 131 -120 15 -344 6 -460 -20 -203 -45 -352 -107 -523 -220 -215 -142
-419 -388 -524 -636 -129 -303 -153 -611 -71 -920 14 -55 29 -104 33 -108 23
-25 399 225 450 299 14 19 43 57 65 83 22 26 79 98 128 159 75 97 91 112 116
112 28 0 56 27 127 121 10 15 50 62 87 105 61 71 73 80 110 84 39 5 49 13 160
143 69 80 126 137 136 137 18 0 73 -55 204 -203 60 -67 73 -77 102 -77 22 0
39 -7 47 -19 8 -11 55 -64 105 -118 49 -54 105 -115 123 -135 19 -23 41 -38
54 -38 12 0 30 -6 40 -13 17 -13 17 -14 -8 -30 -68 -45 -64 -46 -179 81 -183
203 -182 202 -214 202 -26 0 -48 20 -152 135 l-122 135 -37 -44 c-20 -24 -75
-89 -121 -145 -47 -56 -88 -101 -92 -101 -4 0 -11 5 -14 10 -15 25 -46 3 -125
-91 -47 -56 -103 -126 -124 -155 -34 -47 -44 -54 -73 -54 -29 0 -39 -8 -76
-56 -23 -31 -66 -85 -94 -120 -29 -35 -53 -66 -53 -69 0 -9 69 44 145 112 38
35 72 63 76 63 4 0 9 -15 11 -32 l3 -33 45 59 c25 32 75 93 111 135 37 42 80
91 96 110 l29 34 33 -58 c18 -31 36 -54 41 -49 6 8 77 130 167 292 13 23 28
42 34 42 12 0 138 -131 139 -144 0 -5 -18 -40 -39 -77 l-40 -68 85 -80 c46
-44 84 -82 84 -84 0 -10 -65 -27 -104 -27 l-41 0 85 -83 c119 -115 227 -215
261 -240 16 -11 29 -24 29 -27 0 -12 -145 11 -216 35 -120 40 -270 150 -309
226 l-16 30 -27 -33 c-14 -18 -64 -75 -110 -125 -47 -51 -81 -93 -76 -93 5 0
27 6 49 14 22 8 55 17 72 21 l33 7 -25 -44 c-28 -49 -32 -90 -10 -108 8 -6 35
-17 61 -24 l46 -11 -94 -27 c-138 -39 -268 -101 -402 -192 -200 -137 -360
-229 -435 -251 l-24 -7 28 48 c15 27 45 74 67 104 21 31 38 59 38 62 0 4 -16
0 -35 -8 -39 -16 -65 -18 -65 -6 0 5 41 59 90 121 l91 112 -58 -30 c-65 -33
-143 -54 -168 -44 -13 4 -15 13 -11 35 l6 29 -36 -28 c-20 -15 -70 -48 -113
-74 -124 -78 -117 -69 -96 -109 53 -102 156 -243 265 -363 109 -119 352 -272
530 -333 178 -60 258 -75 445 -81 206 -7 322 9 512 68 126 39 334 134 340 155
3 10 -103 40 -234 65 -84 16 -262 7 -331 -17 -32 -10 -74 -36 -102 -61 -52
-46 -70 -52 -94 -27 -40 40 4 110 110 174 121 73 280 88 484 46 63 -14 162
-34 220 -46 l105 -22 75 70 c41 40 68 72 60 72 -60 1 -287 45 -390 74 -461
134 -783 121 -1133 -44 -27 -13 -84 -56 -127 -96 -78 -74 -107 -87 -130 -59
-25 30 -3 84 64 151 171 171 406 252 756 261 213 6 341 -12 620 -87 196 -52
289 -69 382 -70 l57 0 41 53 c22 30 40 57 40 61 0 4 -13 5 -29 1 -52 -11 -233
15 -421 60 -102 24 -228 52 -280 62 -116 20 -371 23 -485 4 -102 -17 -233 -61
-287 -98 -58 -39 -74 -44 -103 -33 -41 16 -34 59 18 106 60 56 101 79 192 108
115 37 161 45 302 57 155 12 307 0 509 -42 78 -16 146 -29 152 -29 14 0 -3 40
-82 200 l-63 125 25 83 25 83 140 -3 139 -3 25 -81 25 -81 -34 -60 c-58 -99
-130 -275 -116 -284 44 -28 294 -49 389 -33 44 7 55 28 92 165 38 137 57 269
57 391 0 323 -117 656 -312 886 -27 32 -28 35 -28 160 0 149 -9 172 -66 172
l-34 0 0 68 c0 75 -19 124 -61 155 -34 25 -96 31 -136 13z m217 -841 l0 -525
-149 0 -148 0 -7 188 c-8 224 -7 611 1 740 l5 92 139 0 c117 0 139 2 139 15 0
8 5 15 10 15 7 0 10 -182 10 -525z m-1169 475 c24 -26 47 -40 63 -40 27 0 66
-41 66 -69 0 -9 -7 -27 -16 -39 -15 -21 -20 -22 -215 -22 -191 0 -199 1 -199
20 0 53 46 97 93 88 20 -4 26 1 36 28 16 45 56 74 99 74 28 0 43 -8 73 -40z
m-576 -164 c66 -30 126 -89 162 -158 22 -44 27 -66 27 -133 1 -91 -25 -161
-84 -229 -65 -73 -192 -114 -298 -95 -119 22 -185 71 -237 174 -26 53 -30 71
-30 145 0 74 4 92 29 143 83 162 267 228 431 153z"/>
<path d="M3380 3070 l0 -460 45 0 45 0 0 193 c0 105 3 312 7 460 l6 267 -51 0
-52 0 0 -460z"/>
<path d="M1987 2423 c-83 -77 -253 -227 -294 -260 -21 -16 8 -8 109 29 l136
51 31 61 c17 34 46 89 66 124 20 34 33 62 30 62 -3 0 -39 -30 -78 -67z"/>
<path d="M3223 2348 l-10 -52 65 -130 65 -131 65 134 65 134 -15 46 c-10 34
-20 47 -36 49 -25 4 -25 4 -11 -51 10 -40 8 -46 -25 -102 l-36 -59 -2 50 -1
49 -6 -49 c-7 -55 -9 -54 -54 25 -22 39 -24 51 -17 85 13 54 13 54 -13 54 -20
0 -25 -7 -34 -52z"/>
<path d="M3317 2327 c-8 -21 8 -39 29 -35 27 5 25 42 -2 46 -12 2 -24 -3 -27
-11z"/>
</g>
</svg>
